<svg xmlns="http://www.w3.org/2000/svg" version="1.1" xmlns:xlink="http://www.w3.org/1999/xlink" xmlns:svgjs="http://svgjs.dev/svgjs" width="2000" height="1414" viewBox="0 0 2000 1414"><g transform="matrix(1,0,0,1,-1.2121212121212466,0.0006769538032358469)"><svg viewBox="0 0 396 280" data-background-color="#ffffff" preserveAspectRatio="xMidYMid meet" height="1414" width="2000" xmlns="http://www.w3.org/2000/svg" xmlns:xlink="http://www.w3.org/1999/xlink"><g id="tight-bounds" transform="matrix(1,0,0,1,0.2400000000000091,-2.842170943040401e-14)"><svg viewBox="0 0 395.52 280" height="280" width="395.52"><g><svg viewBox="0 0 395.52 280" height="280" width="395.52"><g><svg viewBox="0 0 395.52 280" height="280" width="395.52"><g><svg viewBox="0 0 395.52 280" height="280" width="395.52"><g><svg viewBox="0 0 395.52 280" height="280" width="395.52"><g transform="matrix(1,0,0,1,95.65203525306555,57.50420886156945)"><svg viewBox="0 0 204.21592949386888 164.9915822768611" height="164.9915822768611" width="204.21592949386888"><g><circle r="82" cx="102.10796474693444" cy="82.49579113843055" fill="#e8772e" data-fill-palette-color="accent"></circle><svg xmlns="http://www.w3.org/2000/svg" xmlns:xlink="http://www.w3.org/1999/xlink" version="1.1" x="34.95935926186291" y="34.959359261862915" viewBox="14.449998423948623 39.891674402908514 82.14183769405615 95.60532813174356" enable-background="new 0 38.5 100 100" xml:space="preserve" height="95.07286375313527" width="134.29721097014308" class="icon-an-0" data-fill-palette-color="quaternary" id="an-0"><path d="M43.517 78.828c-1.988 0.263-3.477-0.03-4.424-0.87-1.125-0.998-1.128-2.497-1.129-2.527 0.007-0.396-0.308-0.724-0.703-0.731-0.006-0.002-0.013-0.001-0.019-0.001-0.389 0.001-0.708 0.312-0.716 0.704-0.002 0.087-0.029 2.163 1.594 3.617 1 0.896 2.372 1.345 4.094 1.341 0.471-0.002 0.969-0.036 1.491-0.106 0.394-0.053 0.671-0.413 0.62-0.807C44.272 79.053 43.908 78.776 43.517 78.828z" fill="#ffffff" data-fill-palette-color="quaternary"></path><path d="M96.429 56.969c-1.904 0.794-6.537-1.955-7.091-2.15-2.177-0.673-6.88-16.421-20.685-14.812-11.587 1.351-17.307 6.494-18.846 8.112-0.947-0.123-1.914-0.186-2.894-0.184-7.723 0.02-14.752 4.087-18.631 10.7-0.657-0.449-1.377-0.681-2.127-0.679-2.818 0.007-5.017 3.297-5.007 7.491 0.009 3.867 1.895 6.958 4.397 7.409 1.588 10.579 10.679 18.438 21.473 18.412 8.442-0.021 15.987-4.859 19.547-12.429 0.529 0.274 1.092 0.415 1.667 0.414 2.732-0.007 4.864-3.13 4.854-7.108s-2.157-7.09-4.889-7.083c-0.015 0-0.03 0-0.046 0-1.141-5.381-4.212-9.934-8.411-12.989 4.163 1.619 8.973 3.782 13.222 6.444C83.148 64.894 98.331 56.176 96.429 56.969zM66.437 66.319l0.186 1.109 1.066-0.358c0.174-0.059 0.348-0.088 0.515-0.089 1.6-0.003 2.956 2.363 2.963 5.169 0.007 2.805-1.339 5.178-2.938 5.183-0.479 0-0.948-0.22-1.396-0.655l-1.023-0.998-0.536 1.325c-3.027 7.478-10.194 12.322-18.258 12.342-10.088 0.024-18.543-7.507-19.667-17.52l-0.104-0.928-0.931 0.078-0.126 0.014c-1.683 0.005-3.111-2.537-3.117-5.551-0.008-3.013 1.407-5.562 3.09-5.565 0.72-0.002 1.298 0.492 1.656 0.906l0.931 1.077 0.65-1.266c0.95-1.85 2.167-3.494 3.58-4.917 6.32 0.604 25.367 2.883 32.057 8.879-2.762-5.394-4.524-8.812-6.726-11.145C62.515 56.351 65.532 60.912 66.437 66.319z" fill="#ffffff" data-fill-palette-color="quaternary"></path><path d="M46.649 65.146c4.627 12.857 13.795 2.877 15.007-2.028C58.754 66.188 46.649 65.146 46.649 65.146z" fill="#ffffff" data-fill-palette-color="quaternary"></path><path d="M31.631 63.111c1.237 4.898 10.453 14.834 15.019 1.954C46.649 65.065 34.549 66.168 31.631 63.111z" fill="#ffffff" data-fill-palette-color="quaternary"></path><path d="M35.95 105.15l-6.079 0.016-0.002-0.941h0.036c1.647-0.004 2.984-1.474 2.98-3.277-0.002-0.662-0.188-1.303-0.531-1.844 0.34-0.542 0.523-1.184 0.522-1.847-0.002-0.662-0.188-1.304-0.531-1.845 0.34-0.542 0.523-1.185 0.522-1.846-0.001-0.663-0.188-1.304-0.532-1.846 0.341-0.541 0.524-1.184 0.522-1.847-0.004-1.68-1.177-3.05-2.668-3.227 0.003-0.976-0.31-1.995-0.729-2.722-0.602-1.041-1.448-1.667-2.414-1.767-0.861-0.06-1.664 0.249-2.35 0.894-0.017 0.017-0.031 0.035-0.048 0.05-0.565 0.552-1.046 1.359-1.457 2.345-0.156 0.371-0.301 0.766-0.436 1.182l-0.51 0.002c-0.485 0-0.97 0.138-1.407 0.396-0.889 0.302-1.694 0.76-2.396 1.334-0.247 0.204-0.485 0.417-0.707 0.649-0.256 0.268-0.492 0.556-0.707 0.858-0.964 1.347-1.517 3.009-1.513 4.783l0.004 1.603c0.004 1.774 0.566 3.431 1.535 4.773 0.217 0.301 0.453 0.588 0.711 0.854 0.221 0.23 0.46 0.444 0.71 0.646 0.683 0.554 1.461 0.997 2.32 1.295-0.003 0.591 0 1.023 0.002 1.245l0.002 0.119-2.318 0.005-0.709 0.002-0.708 0.002-1.553 0.004c-0.587 0.001-1.062 0.478-1.061 1.065l0.066 27.82 0.001 0.354c0.001 0.125 0.026 0.243 0.067 0.355 0.147 0.411 0.538 0.706 1 0.705l2.97-0.007 17.465-0.042c0.587-0.002 1.062-0.479 1.061-1.066l-0.068-28.174C37.014 105.624 36.537 105.149 35.95 105.15zM25.885 84.905c0.087-0.111 0.176-0.218 0.268-0.304 0.328-0.309 0.565-0.334 0.708-0.324 0.225 0.022 0.521 0.303 0.759 0.713 0.31 0.537 0.454 1.155 0.456 1.627l-3.088 0.007c0.168-0.448 0.347-0.845 0.539-1.183C25.64 85.238 25.761 85.063 25.885 84.905zM24.31 88.945l5.079-0.012 0.113 0.051 0.022-0.052h0.343c0.362 0 0.669 0.433 0.67 0.947 0 0.365-0.162 0.705-0.416 0.865-0.339 0.214-0.542 0.582-0.541 0.982 0.001 0.402 0.205 0.769 0.545 0.982 0.254 0.157 0.419 0.496 0.42 0.862 0 0.364-0.162 0.703-0.417 0.863-0.338 0.215-0.541 0.582-0.54 0.983s0.205 0.769 0.545 0.981c0.254 0.159 0.418 0.496 0.419 0.862 0.001 0.364-0.161 0.704-0.416 0.864-0.339 0.215-0.541 0.582-0.54 0.983 0.001 0.4 0.205 0.768 0.544 0.981 0.254 0.158 0.419 0.496 0.42 0.861 0.001 0.515-0.304 0.951-0.666 0.951l-6.946 0.018C23.06 97.67 23.469 92.584 24.31 88.945zM22.925 104.242l4.818-0.012 0.002 0.94-4.817 0.011-0.002-0.137C22.923 104.788 22.925 104.511 22.925 104.242zM18.469 98.842c-0.394-0.787-0.625-1.67-0.627-2.594l-0.003-1.602c-0.002-0.934 0.219-1.831 0.614-2.627 0.661-1.332 1.812-2.378 3.233-2.828 0.106-0.034 0.207-0.082 0.3-0.145 0.05-0.033 0.097-0.058 0.144-0.073-0.886 4.009-1.188 8.96-1.287 12.344C19.814 100.775 18.994 99.896 18.469 98.842zM34.954 133.327l-16.402 0.039-0.708 0.002-0.709 0.002-0.489 0.001-0.063-26.048 0.49-0.001 0.458-0.001c0.079 0.034 0.168 0.07 0.25 0.104 0.222 0.094 0.458 0.188 0.71 0.281 3.206 1.2 8.752 2.312 15.398-0.425l1.003-0.001L34.954 133.327z" fill="#ffffff" data-fill-palette-color="quaternary"></path><path d="M79.697 105.12l-5.288 0.013 0.001-0.118c0.002-0.211 0.002-0.615-0.002-1.158 3.146-1.104 5.247-4.136 5.239-7.594l-0.005-1.602c-0.008-3.488-2.158-6.534-5.357-7.6-0.438-0.256-0.924-0.391-1.408-0.39l-0.48 0.001c-0.52-1.592-1.168-2.892-1.987-3.654-0.689-0.644-1.5-0.948-2.387-0.88-0.934 0.101-1.777 0.73-2.374 1.775-0.429 0.749-0.746 1.812-0.719 2.813-1.49 0.186-2.653 1.561-2.649 3.239 0.001 0.663 0.188 1.305 0.531 1.845-0.341 0.542-0.524 1.185-0.522 1.847s0.188 1.304 0.531 1.844c-0.341 0.543-0.523 1.185-0.522 1.848 0.002 0.663 0.188 1.304 0.53 1.844-0.34 0.542-0.523 1.184-0.521 1.847 0.004 1.803 1.349 3.267 2.996 3.263h0.035l0.002 0.852-6.078 0.015c-0.587 0.002-1.062 0.479-1.061 1.066l0.068 28.173c0.001 0.588 0.479 1.062 1.065 1.061l20.436-0.049c0.587-0.002 1.062-0.479 1.061-1.065l-0.067-28.174C80.762 105.594 80.284 105.119 79.697 105.12zM73.149 89.087c0.093 0.062 0.193 0.11 0.299 0.144 2.276 0.707 3.868 2.942 3.874 5.437l0.004 1.602c0.005 2.158-1.182 4.124-2.972 5.08-0.111-3.355-0.431-8.305-1.324-12.323C73.068 89.04 73.107 89.06 73.149 89.087zM67.494 84.969c0.235-0.411 0.531-0.692 0.723-0.714 0.173-0.017 0.413 0.013 0.741 0.318 0.457 0.426 0.858 1.157 1.211 2.105l-3.122 0.008C67.027 86.207 67.168 85.54 67.494 84.969zM65.298 101.982c-0.362 0.001-0.669-0.434-0.671-0.948-0.001-0.365 0.162-0.703 0.416-0.864 0.339-0.214 0.541-0.582 0.54-0.983-0.001-0.4-0.204-0.768-0.546-0.98-0.254-0.159-0.418-0.497-0.419-0.862s0.162-0.704 0.415-0.864c0.339-0.214 0.541-0.581 0.54-0.984-0.001-0.4-0.204-0.768-0.545-0.981-0.254-0.158-0.418-0.496-0.419-0.86-0.001-0.365 0.161-0.705 0.415-0.864 0.34-0.215 0.541-0.583 0.541-0.984-0.001-0.401-0.206-0.768-0.546-0.981-0.254-0.158-0.418-0.497-0.419-0.862-0.002-0.514 0.304-0.949 0.666-0.95l5.58-0.014c0.85 3.652 1.276 8.735 1.399 12.969L65.298 101.982zM67.464 104.298l4.821-0.012c0.001 0.243 0 0.482-0.001 0.715l-0.001 0.137-4.816 0.012L67.464 104.298zM78.702 133.297l-18.31 0.044-0.062-26.048 1.003-0.002c7.376 2.994 13.389 1.276 16.357-0.04l0.949-0.002L78.702 133.297z" fill="#ffffff" data-fill-palette-color="quaternary"></path></svg><g></g></g></svg></g><path d="M88.179 108.503L87.544 110.302C87.447 110.577 87.291 110.761 87.075 110.853 86.86 110.946 86.627 110.948 86.377 110.86V110.86L61.896 102.215C61.621 102.117 61.429 101.965 61.32 101.758 61.21 101.551 61.204 101.309 61.301 101.035V101.035L61.91 99.31C62.016 99.01 62.164 98.809 62.355 98.708 62.545 98.607 62.682 98.557 62.766 98.558V98.558L86.281 92.864 67.536 86.244C67.261 86.147 67.069 85.995 66.96 85.787 66.85 85.58 66.844 85.339 66.941 85.064V85.064L67.577 83.264C67.674 82.99 67.832 82.799 68.052 82.694 68.272 82.589 68.519 82.585 68.794 82.682V82.682L93.237 91.314C93.487 91.403 93.671 91.559 93.789 91.783 93.906 92.007 93.921 92.245 93.833 92.494V92.494L93.197 94.294C93.1 94.569 92.952 94.749 92.754 94.833 92.555 94.918 92.422 94.976 92.355 95.008V95.008L69.04 100.732 87.635 107.298C87.885 107.387 88.062 107.541 88.167 107.76 88.273 107.98 88.277 108.228 88.179 108.503ZM132.353 48.023L130.664 49.283C130.431 49.458 130.199 49.524 129.968 49.481 129.738 49.438 129.543 49.31 129.385 49.098V49.098L113.83 28.261C113.671 28.049 113.604 27.826 113.628 27.593 113.653 27.36 113.782 27.156 114.015 26.981V26.981L115.704 25.721C115.937 25.546 116.17 25.481 116.4 25.524 116.631 25.566 116.825 25.694 116.984 25.907V25.907L132.539 46.743C132.697 46.955 132.764 47.178 132.74 47.411 132.716 47.645 132.587 47.848 132.353 48.023ZM187.656 28.63L185.671 28.739C185.38 28.755 185.15 28.682 184.982 28.518 184.813 28.355 184.722 28.141 184.707 27.876V27.876L183.28 1.953C183.264 1.662 183.33 1.426 183.48 1.245 183.629 1.064 183.849 0.966 184.14 0.95V0.95L186.125 0.841C186.416 0.825 186.653 0.898 186.834 1.061 187.016 1.223 187.114 1.45 187.13 1.741V1.741L187.673 11.586 197.713 0.84C197.813 0.728 197.984 0.586 198.227 0.413 198.469 0.241 198.802 0.143 199.226 0.119V0.119L201.369 0.001C201.581-0.01 201.771 0.059 201.938 0.209 202.106 0.359 202.196 0.54 202.207 0.751V0.751C202.219 0.963 202.175 1.138 202.077 1.276V1.276L190.47 13.941 204.255 26.362C204.396 26.513 204.472 26.695 204.484 26.907V26.907C204.495 27.118 204.426 27.308 204.276 27.476 204.126 27.643 203.945 27.733 203.733 27.744V27.744L201.51 27.867C201.06 27.892 200.712 27.825 200.464 27.666 200.216 27.507 200.037 27.377 199.925 27.277V27.277L187.957 16.747 188.558 27.664C188.573 27.929 188.499 28.152 188.336 28.334 188.174 28.515 187.947 28.614 187.656 28.63ZM269.016 52.509L254.897 43.519C254.651 43.362 254.507 43.168 254.465 42.938 254.424 42.707 254.474 42.48 254.617 42.256V42.256L268.562 20.357C268.718 20.111 268.91 19.958 269.136 19.898 269.363 19.838 269.599 19.886 269.845 20.043V20.043L283.696 28.863C283.942 29.019 284.086 29.213 284.127 29.444 284.169 29.674 284.111 29.913 283.955 30.159V30.159L283.143 31.433C282.987 31.679 282.799 31.826 282.579 31.875 282.36 31.924 282.127 31.87 281.881 31.713V31.713L270.478 24.452 265.802 31.797 276.466 38.588C276.712 38.745 276.856 38.938 276.898 39.169 276.939 39.4 276.882 39.638 276.725 39.884V39.884L275.935 41.125C275.793 41.348 275.608 41.49 275.381 41.55 275.155 41.61 274.918 41.562 274.672 41.405V41.405L264.008 34.614 259.16 42.227 270.831 49.659C271.077 49.815 271.224 50.003 271.273 50.223 271.322 50.442 271.268 50.675 271.111 50.921V50.921L270.278 52.229C270.136 52.453 269.951 52.594 269.725 52.654 269.498 52.714 269.262 52.666 269.016 52.509ZM308.425 111.841L302.294 96.266C302.187 95.995 302.185 95.754 302.287 95.542 302.389 95.331 302.563 95.177 302.81 95.08V95.08L326.968 85.57C327.239 85.463 327.484 85.452 327.703 85.537 327.921 85.622 328.084 85.8 328.191 86.071V86.071L334.205 101.351C334.312 101.622 334.315 101.863 334.213 102.074 334.11 102.285 333.924 102.444 333.652 102.551V102.551L332.247 103.104C331.975 103.211 331.737 103.22 331.53 103.13 331.324 103.04 331.168 102.86 331.061 102.588V102.588L326.109 90.01 318.007 93.199 322.638 104.964C322.745 105.235 322.748 105.476 322.646 105.688 322.543 105.899 322.357 106.058 322.085 106.164V106.164L320.717 106.703C320.47 106.8 320.237 106.806 320.019 106.722 319.8 106.637 319.638 106.459 319.531 106.187V106.187L314.9 94.423 306.502 97.729 311.57 110.603C311.677 110.874 311.685 111.113 311.595 111.319 311.506 111.526 311.325 111.682 311.054 111.789V111.789L309.611 112.357C309.364 112.454 309.132 112.46 308.913 112.375 308.695 112.29 308.532 112.112 308.425 111.841ZM68.685 185.482L68.049 183.682C67.952 183.407 67.958 183.166 68.068 182.959 68.177 182.751 68.357 182.604 68.607 182.515V182.515L93.088 173.87C93.363 173.773 93.608 173.771 93.823 173.863 94.039 173.956 94.195 174.14 94.292 174.415V174.415L94.901 176.139C95.007 176.439 95.018 176.688 94.933 176.887 94.849 177.085 94.773 177.21 94.707 177.262V177.262L79.983 196.46 98.728 189.841C99.003 189.744 99.248 189.741 99.463 189.834 99.679 189.927 99.835 190.11 99.932 190.385V190.385L100.568 192.185C100.665 192.46 100.661 192.707 100.556 192.927 100.45 193.147 100.26 193.305 99.986 193.402V193.402L75.542 202.034C75.292 202.123 75.051 202.116 74.819 202.016 74.587 201.915 74.426 201.74 74.338 201.49V201.49L73.702 199.69C73.605 199.415 73.608 199.183 73.709 198.992 73.81 198.802 73.877 198.673 73.91 198.605V198.605L88.46 179.51 69.865 186.077C69.615 186.165 69.38 186.157 69.16 186.052 68.94 185.947 68.782 185.757 68.685 185.482ZM119.985 255.644L118.296 254.384C118.063 254.209 117.934 254.005 117.909 253.772 117.885 253.539 117.952 253.316 118.111 253.104V253.104L133.666 232.267C133.824 232.055 134.019 231.927 134.249 231.884 134.48 231.842 134.712 231.907 134.946 232.082V232.082L136.634 233.342C136.868 233.517 136.997 233.72 137.021 233.954 137.046 234.187 136.979 234.41 136.82 234.622V234.622L121.265 255.458C121.106 255.671 120.912 255.799 120.681 255.841 120.451 255.884 120.219 255.819 119.985 255.644ZM186.519 279.113L184.534 279.004C184.243 278.988 184.022 278.89 183.873 278.709 183.724 278.528 183.656 278.305 183.671 278.041V278.041L185.099 252.117C185.115 251.826 185.207 251.599 185.375 251.436 185.543 251.273 185.773 251.199 186.064 251.215V251.215L188.049 251.324C188.34 251.34 188.567 251.439 188.73 251.621 188.892 251.802 188.965 252.038 188.949 252.33V252.33L188.407 262.175 199.566 252.596C199.678 252.496 199.864 252.373 200.124 252.228 200.384 252.083 200.726 252.022 201.15 252.046V252.046L203.293 252.164C203.505 252.175 203.686 252.265 203.836 252.433 203.986 252.6 204.055 252.79 204.044 253.001V253.001C204.032 253.213 203.97 253.382 203.856 253.509V253.509L190.929 264.822 203.267 278.682C203.39 278.848 203.446 279.037 203.434 279.248V279.248C203.423 279.46 203.333 279.641 203.166 279.791 202.998 279.941 202.808 280.01 202.597 279.999V279.999L200.374 279.876C199.924 279.852 199.584 279.747 199.356 279.561 199.127 279.376 198.963 279.228 198.862 279.116V279.116L188.123 267.336 187.522 278.253C187.507 278.517 187.409 278.731 187.228 278.894 187.046 279.056 186.81 279.129 186.519 279.113ZM280.12 252.03L266.001 261.02C265.756 261.177 265.519 261.225 265.293 261.165 265.066 261.105 264.881 260.964 264.739 260.74V260.74L250.794 238.841C250.637 238.595 250.58 238.356 250.621 238.126 250.663 237.895 250.807 237.701 251.053 237.545V237.545L264.903 228.725C265.149 228.568 265.386 228.52 265.612 228.58 265.839 228.64 266.031 228.793 266.187 229.039V229.039L266.999 230.313C267.155 230.559 267.209 230.792 267.161 231.011 267.112 231.231 266.965 231.419 266.719 231.576V231.576L255.316 238.836 259.993 246.181 270.658 239.39C270.904 239.233 271.14 239.185 271.367 239.245 271.593 239.305 271.785 239.458 271.941 239.704V239.704L272.732 240.944C272.874 241.168 272.924 241.395 272.883 241.626 272.841 241.857 272.697 242.05 272.451 242.207V242.207L261.787 248.998 266.634 256.611 278.305 249.179C278.551 249.022 278.784 248.969 279.003 249.017 279.223 249.066 279.411 249.213 279.568 249.459V249.459L280.401 250.767C280.543 250.991 280.593 251.218 280.552 251.449 280.51 251.679 280.366 251.873 280.12 252.03ZM327.663 182.832L321.531 198.407C321.425 198.678 321.262 198.856 321.043 198.941 320.825 199.026 320.592 199.02 320.346 198.923V198.923L296.188 189.413C295.916 189.306 295.73 189.147 295.628 188.936 295.525 188.725 295.528 188.484 295.635 188.212V188.212L301.649 172.933C301.756 172.662 301.919 172.484 302.137 172.399 302.356 172.314 302.601 172.325 302.872 172.432V172.432L304.278 172.985C304.549 173.092 304.73 173.249 304.82 173.455 304.909 173.661 304.901 173.9 304.794 174.171V174.171L299.842 186.75 307.944 189.939 312.576 178.174C312.682 177.903 312.845 177.725 313.064 177.64 313.282 177.555 313.527 177.566 313.798 177.673V177.673L315.167 178.212C315.414 178.309 315.588 178.463 315.69 178.674 315.792 178.885 315.79 179.127 315.683 179.398V179.398L311.052 191.162 319.45 194.468 324.518 181.594C324.625 181.323 324.781 181.142 324.988 181.052 325.194 180.963 325.433 180.971 325.704 181.078V181.078L327.147 181.646C327.393 181.743 327.568 181.897 327.67 182.108 327.772 182.319 327.77 182.561 327.663 182.832ZM69.054 143.55C69.054 141.788 70.482 140.36 72.243 140.36 74.005 140.36 75.433 141.788 75.433 143.55 75.433 145.311 74.005 146.739 72.243 146.739 70.482 146.739 69.054 145.311 69.054 143.55ZM319.539 143.55C319.539 141.788 320.967 140.36 322.728 140.36 324.49 140.36 325.918 141.788 325.918 143.55 325.918 145.311 324.49 146.739 322.728 146.739 320.967 146.739 319.539 145.311 319.539 143.55Z" fill="#e8772e" data-fill-palette-color="primary"></path></svg></g></svg></g></svg></g></svg></g><defs></defs></svg><rect width="395.52" height="280" fill="none" stroke="none" visibility="hidden"></rect></g></svg></g></svg>